<?xml version="1.0" encoding="UTF-8"?>
<svg width="1440px" height="400px" viewBox="0 0 1440 400" version="1.1" xmlns="http://www.w3.org/2000/svg" xmlns:xlink="http://www.w3.org/1999/xlink">
    <!-- Generator: Sketch 63.1 (92452) - https://sketch.com -->
    <title>PatternThing</title>
    <desc>Created with Sketch.</desc>
    <g id="Page-1" stroke="none" stroke-width="1" fill="none" fill-rule="evenodd">
        <g id="Artboard" fill="#5C6595">
            <g id="PatternThing">
                <path d="M0,2.84217094e-14 L1440,2.84217094e-14 L1441.08363,249.849686 C1378.56764,296.054651 1268.51174,319.157134 1110.91591,319.157134 C874.522177,319.157134 751.787666,249.869598 454.623842,262.613066 C256.514625,271.108711 104.973345,304.115402 0,361.63314 L0,2.84217094e-14 Z" id="Path-2" opacity="0.8"></path>
                <path d="M0,0 L1440,0 L1440,312.582464 C1358.29167,288.513492 1238.63959,276.479006 1081.04377,276.479006 C844.650031,276.479006 625.216945,247.675085 348.375019,290.257836 C163.813736,318.646336 47.6887291,355.227057 0,400 L0,0 Z" id="Path-2" opacity="0.5"></path>
                <path d="M0,1.42108547e-13 L1440,1.42108547e-13 L1441.08363,173.109926 C1278.7554,276.766527 1118.79338,328.594828 961.197552,328.594828 C724.803816,328.594828 586.931495,229.489449 299.908469,247.670925 C108.559785,259.791908 8.59029545,282.01566 0,314.34218 L0,1.42108547e-13 Z" id="Path-2" opacity="0.8"></path>
            </g>
        </g>
    </g>
</svg>